{
  "asset": {
    "version": "2.0",
    "generator": "THREE.GLTFExporter"
  },
  "scenes": [
    {
      "nodes": [
        0
      ]
    }
  ],
  "scene": 0,
  "nodes": [
    {
      "children": [
        6
      ],
      "matrix": [
        0.01,
        0,
        0,
        0,
        0,
        0.01,
        0,
        0,
        0,
        0,
        0.01,
        0,
        0,
        0,
        0,
        1
      ]
    },
    {
      "matrix": [
        0.7065631767000895,
        -1.3877787807814457e-16,
        0.7076499680855487,
        0,
        0.35554897928062856,
        0.8646142716967815,
        -0.3550029359184894,
        0,
        -0.6118442617725374,
        0.5024362259812124,
        0.6109046064303123,
        0,
        -615.7634968739632,
        525.362555349328,
        622.4580663798782,
        1
      ],
      "name": "Camera",
      "camera": 0
    },
    {
      "matrix": [
        1,
        0,
        0,
        0,
        0,
        2.220446049250313e-16,
        -1,
        0,
        0,
        1,
        2.220446049250313e-16,
        0,
        0,
        -4.9046561639107935,
        -8.881784197001252e-16,
        1
      ],
      "name": "Plane 3",
      "mesh": 0
    },
    {
      "matrix": [
        1,
        0,
        0,
        0,
        0,
        2.220446049250313e-16,
        -1,
        0,
        0,
        1,
        2.220446049250313e-16,
        0,
        0,
        7.660922621668618,
        8.881784197001252e-16,
        1
      ],
      "name": "Plane",
      "mesh": 1
    },
    {
      "matrix": [
        0.9177499619809457,
        1.3877787807814457e-17,
        -0.3971586676430122,
        0,
        -0.17568359076890794,
        0.8968419402967499,
        -0.4059677450971984,
        0,
        0.35618855009463113,
        0.4423511434649638,
        0.8230766566102599,
        0,
        363.48886513964584,
        472.187566354361,
        821.1181139362737,
        1
      ],
      "camera": 1
    },
    {
      "matrix": [
        1,
        0,
        0,
        0,
        0,
        1,
        0,
        0,
        0,
        0,
        1,
        0,
        0,
        1,
        0,
        1
      ],
      "name": "Default Ambient Light"
    },
    {
      "name": "Scene 1",
      "children": [
        1,
        2,
        3,
        4,
        5
      ]
    }
  ],
  "cameras": [
    {
      "type": "orthographic",
      "orthographic": {
        "xmag": 0.9021717315153955,
        "ymag": 0.3849580948612813,
        "zfar": 100000,
        "znear": 0
      },
      "name": "Camera"
    },
    {
      "type": "orthographic",
      "orthographic": {
        "xmag": 2.5166169021478386,
        "ymag": 1.0738443849478996,
        "zfar": 100000,
        "znear": 0
      }
    }
  ],
  "bufferViews": [
    {
      "buffer": 0,
      "byteOffset": 0,
      "byteLength": 98400,
      "target": 34962,
      "byteStride": 12
    },
    {
      "buffer": 0,
      "byteOffset": 98400,
      "byteLength": 98400,
      "target": 34962,
      "byteStride": 12
    },
    {
      "buffer": 0,
      "byteOffset": 196800,
      "byteLength": 65600,
      "target": 34962,
      "byteStride": 8
    },
    {
      "buffer": 0,
      "byteOffset": 262400,
      "byteLength": 95520,
      "target": 34963
    },
    {
      "buffer": 0,
      "byteOffset": 357920,
      "byteLength": 98400,
      "target": 34962,
      "byteStride": 12
    },
    {
      "buffer": 0,
      "byteOffset": 456320,
      "byteLength": 98400,
      "target": 34962,
      "byteStride": 12
    },
    {
      "buffer": 0,
      "byteOffset": 554720,
      "byteLength": 65600,
      "target": 34962,
      "byteStride": 8
    },
    {
      "buffer": 0,
      "byteOffset": 620320,
      "byteLength": 95520,
      "target": 34963
    }
  ],
  "buffers": [
    {
      "byteLength": 715840,
      "uri": "data:application/octet-stream;base64,"
    }
  ],
  "accessors": [
    {
      "bufferView": 0,
      "componentType": 5126,
      "count": 8200,
      "max": [
        150,
        24.5,
        0
      ],
      "min": [
        -150,
        -24.5,
        0
      ],
      "type": "VEC3"
    },
    {
      "bufferView": 1,
      "componentType": 5126,
      "count": 8200,
      "max": [
        0,
        0,
        1
      ],
      "min": [
        0,
        0,
        1
      ],
      "type": "VEC3"
    },
    {
      "bufferView": 2,
      "componentType": 5126,
      "count": 8200,
      "max": [
        1,
        1
      ],
      "min": [
        0,
        0
      ],
      "type": "VEC2"
    },
    {
      "bufferView": 3,
      "componentType": 5123,
      "count": 47760,
      "max": [
        8199
      ],
      "min": [
        0
      ],
      "type": "SCALAR"
    },
    {
      "bufferView": 4,
      "componentType": 5126,
      "count": 8200,
      "max": [
        150,
        24.5,
        0
      ],
      "min": [
        -150,
        -24.5,
        0
      ],
      "type": "VEC3"
    },
    {
      "bufferView": 5,
      "componentType": 5126,
      "count": 8200,
      "max": [
        0,
        0,
        1
      ],
      "min": [
        0,
        0,
        1
      ],
      "type": "VEC3"
    },
    {
      "bufferView": 6,
      "componentType": 5126,
      "count": 8200,
      "max": [
        1,
        1
      ],
      "min": [
        0,
        0
      ],
      "type": "VEC2"
    },
    {
      "bufferView": 7,
      "componentType": 5123,
      "count": 47760,
      "max": [
        8199
      ],
      "min": [
        0
      ],
      "type": "SCALAR"
    }
  ],
  "materials": [
    {
      "pbrMetallicRoughness": {
        "baseColorFactor": [
          0.21056720539596588,
          0.0036229732518232626,
          0.3731662449377919,
          1
        ],
        "metallicFactor": 0,
        "roughnessFactor": 0.9211285209913431
      },
      "doubleSided": true
    },
    {
      "pbrMetallicRoughness": {
        "baseColorFactor": [
          0.21056720539596588,
          0.0036229732518232626,
          0.3731662449377919,
          1
        ],
        "metallicFactor": 0,
        "roughnessFactor": 0.9211285209913431
      },
      "doubleSided": true
    }
  ],
  "meshes": [
    {
      "primitives": [
        {
          "mode": 4,
          "attributes": {
            "POSITION": 0,
            "NORMAL": 1,
            "TEXCOORD_0": 2
          },
          "extras": {
            "parameters": {
              "width": 300,
              "depth": 0,
              "widthSegments": 199,
              "heightSegments": 40,
              "height": 49,
              "type": "PlaneGeometry"
            },
            "type": "PlaneGeometry"
          },
          "indices": 3,
          "material": 0
        }
      ]
    },
    {
      "primitives": [
        {
          "mode": 4,
          "attributes": {
            "POSITION": 4,
            "NORMAL": 5,
            "TEXCOORD_0": 6
          },
          "extras": {
            "parameters": {
              "width": 300,
              "depth": 0,
              "widthSegments": 199,
              "heightSegments": 40,
              "height": 49,
              "type": "PlaneGeometry"
            },
            "type": "PlaneGeometry"
          },
          "indices": 7,
          "material": 1
        }
      ]
    }
  ]
}