{
  "asset": {
    "version": "2.0",
    "generator": "THREE.GLTFExporter"
  },
  "scenes": [
    {
      "nodes": [
        0
      ]
    }
  ],
  "scene": 0,
  "nodes": [
    {
      "children": [
        8
      ],
      "matrix": [
        0.01,
        0,
        0,
        0,
        0,
        0.01,
        0,
        0,
        0,
        0,
        0.01,
        0,
        0,
        0,
        0,
        1
      ]
    },
    {
      "name": "Mesh",
      "mesh": 0
    },
    {
      "matrix": [
        0.9849788489139697,
        -0.27377274669305,
        0,
        0,
        0.27490395464916295,
        0.9890487058444101,
        0,
        0,
        0,
        0,
        1.0223183700001397,
        0,
        0.16572254786896679,
        3.1471697723077625,
        0.5827612180659902,
        1
      ],
      "name": "“minimal elegant twisted ri...",
      "children": [
        1
      ]
    },
    {
      "name": "Mesh",
      "mesh": 0
    },
    {
      "matrix": [
        0.9634756430267741,
        -0.26779597699394975,
        0,
        0,
        0.26779597699394975,
        0.9634756430267741,
        0,
        0,
        0,
        0,
        1,
        0,
        1,
        2.4037411388157537,
        0,
        1
      ],
      "name": "“minimal elegant twisted ri... 2",
      "children": [
        3
      ]
    },
    {
      "matrix": [
        0.8693613467427794,
        0.30073146670149115,
        -0.3921370088695413,
        0,
        -0.32691513814321677,
        0.9450536981848182,
        0,
        0,
        0.37059053042729284,
        0.1281955244256539,
        0.9199068247789279,
        0,
        0,
        0,
        0,
        1
      ],
      "name": "Directional Light",
      "extensions": {
        "KHR_lights_punctual": {
          "light": 0
        }
      }
    },
    {
      "matrix": [
        1,
        0,
        0,
        0,
        0,
        1,
        -6.457620374940665e-17,
        0,
        0,
        6.457620374940665e-17,
        1,
        0,
        0,
        91.12274150803563,
        440.12666865176567,
        1
      ],
      "camera": 0
    },
    {
      "matrix": [
        1,
        0,
        0,
        0,
        0,
        1,
        0,
        0,
        0,
        0,
        1,
        0,
        0,
        1,
        0,
        1
      ],
      "name": "Default Ambient Light"
    },
    {
      "name": "Scene 1",
      "children": [
        2,
        4,
        5,
        6,
        7
      ]
    }
  ],
  "bufferViews": [
    {
      "buffer": 0,
      "byteOffset": 0,
      "byteLength": 79620,
      "target": 34962,
      "byteStride": 12
    },
    {
      "buffer": 0,
      "byteOffset": 79620,
      "byteLength": 53080,
      "target": 34962,
      "byteStride": 8
    },
    {
      "buffer": 0,
      "byteOffset": 132700,
      "byteLength": 79620,
      "target": 34962,
      "byteStride": 12
    },
    {
      "buffer": 0,
      "byteOffset": 212320,
      "byteLength": 114720,
      "target": 34963
    }
  ],
  "buffers": [
    {
      "byteLength": 327040,
      "uri": "data:application/octet-stream;base64,"
    }
  ],
  "accessors": [
    {
      "bufferView": 0,
      "componentType": 5126,
      "count": 6635,
      "max": [
        29.396438598632812,
        74.95333862304688,
        26.295949935913086
      ],
      "min": [
        -29.404571533203125,
        -75.04666137695312,
        -26.11128044128418
      ],
      "type": "VEC3"
    },
    {
      "bufferView": 1,
      "componentType": 5126,
      "count": 6635,
      "max": [
        0.9995648264884949,
        0.999585747718811
      ],
      "min": [
        0.00043516099685803056,
        0.00041425228118896484
      ],
      "type": "VEC2"
    },
    {
      "bufferView": 2,
      "componentType": 5126,
      "count": 6635,
      "max": [
        0.9999848008155823,
        0.9999954700469971,
        0.99995356798172
      ],
      "min": [
        -0.9986039996147156,
        -0.9999998211860657,
        -0.9998858571052551
      ],
      "type": "VEC3"
    },
    {
      "bufferView": 3,
      "componentType": 5125,
      "count": 28680,
      "max": [
        6634
      ],
      "min": [
        0
      ],
      "type": "SCALAR"
    }
  ],
  "materials": [
    {
      "alphaMode": "BLEND",
      "pbrMetallicRoughness": {
        "baseColorFactor": [
          0.0392156862745098,
          0.0392156862745098,
          0.0392156862745098,
          0.4
        ],
        "metallicFactor": 0.1,
        "roughnessFactor": 0.553
      },
      "doubleSided": false
    }
  ],
  "meshes": [
    {
      "primitives": [
        {
          "mode": 4,
          "attributes": {
            "POSITION": 0,
            "TEXCOORD_0": 1,
            "NORMAL": 2
          },
          "extras": {
            "parameters": {
              "width": 58.80101013183594,
              "height": 150,
              "depth": 52.407230377197266,
              "subdivisions": 0
            },
            "type": "NonParametricGeometry"
          },
          "indices": 3,
          "material": 0
        }
      ]
    }
  ],
  "extensions": {
    "KHR_lights_punctual": {
      "lights": [
        {
          "name": "Directional Light",
          "color": [
            1,
            1,
            1
          ],
          "intensity": 0.7,
          "type": "directional"
        }
      ]
    }
  },
  "cameras": [
    {
      "type": "perspective",
      "perspective": {
        "aspectRatio": 2.3435582822085887,
        "yfov": 0.7853981633974483,
        "zfar": 100000,
        "znear": 70
      }
    }
  ],
  "extensionsUsed": [
    "KHR_lights_punctual"
  ]
}